HIERARCHY
ROOT root
{
	OFFSET 0.000000 0.000000 0.000000
	CHANNELS 6 Xposition Yposition Zposition Zrotation Yrotation Xrotation
	JOINT lhip
	{
		OFFSET 0.058581 -0.082280 -0.017664
		CHANNELS 3 Zrotation Yrotation Xrotation
		JOINT lknee
		{
			OFFSET 0.043451 -0.386469 0.008037
			CHANNELS 3 Zrotation Yrotation Xrotation
			JOINT lankle
			{
				OFFSET -0.014790 -0.426874 -0.037428
				CHANNELS 3 Zrotation Yrotation Xrotation
				JOINT ltoe
				{
					OFFSET 0.041054 -0.060286 0.122042
					CHANNELS 3 Zrotation Yrotation Xrotation
					End Site
					{
						OFFSET 0.000000 0.000000 0.000000
					}
				}
			}
		}
	}
	JOINT rhip
	{
		OFFSET -0.060310 -0.090513 -0.013543
		CHANNELS 3 Zrotation Yrotation Xrotation
		JOINT rknee
		{
			OFFSET -0.043257 -0.383688 -0.004843
			CHANNELS 3 Zrotation Yrotation Xrotation
			JOINT rankle
			{
				OFFSET 0.019056 -0.420046 -0.034562
				CHANNELS 3 Zrotation Yrotation Xrotation
				JOINT rtoe
				{
					OFFSET -0.034840 -0.062106 0.130323
					CHANNELS 3 Zrotation Yrotation Xrotation
					End Site
					{
						OFFSET 0.000000 0.000000 0.000000
					}
				}
			}
		}
	}
	JOINT lowerback
	{
		OFFSET 0.004439 0.124404 -0.038385
		CHANNELS 3 Zrotation Yrotation Xrotation
		JOINT upperback
		{
			OFFSET 0.004488 0.137956 0.026820
			CHANNELS 3 Zrotation Yrotation Xrotation
			JOINT chest
			{
				OFFSET -0.002265 0.056032 0.002855
				CHANNELS 3 Zrotation Yrotation Xrotation
				JOINT lowerneck
				{
					OFFSET -0.013390 0.211636 -0.033468
					CHANNELS 3 Zrotation Yrotation Xrotation
					JOINT upperneck
					{
						OFFSET 0.010113 0.088937 0.050410
						CHANNELS 3 Zrotation Yrotation Xrotation
						End Site
						{
							OFFSET 0.000000 0.000000 0.000000
						}
					}
				}
				JOINT lclavicle
				{
					OFFSET 0.071702 0.114000 -0.018898
					CHANNELS 3 Zrotation Yrotation Xrotation
					JOINT lshoulder
					{
						OFFSET 0.122921 0.045205 -0.019046
						CHANNELS 3 Zrotation Yrotation Xrotation
						JOINT lelbow
						{
							OFFSET 0.255332 -0.015649 -0.022946
							CHANNELS 3 Zrotation Yrotation Xrotation
							JOINT lwrist
							{
								OFFSET 0.265709 0.012698 -0.007375
								CHANNELS 3 Zrotation Yrotation Xrotation
								End Site
								{
									OFFSET 0.000000 0.000000 0.000000
								}
							}
						}
					}
				}
				JOINT rclavicle
				{
					OFFSET -0.082954 0.112472 -0.023707
					CHANNELS 3 Zrotation Yrotation Xrotation
					JOINT rshoulder
					{
						OFFSET -0.113228 0.046853 -0.008472
						CHANNELS 3 Zrotation Yrotation Xrotation
						JOINT relbow
						{
							OFFSET -0.260127 -0.014369 -0.031269
							CHANNELS 3 Zrotation Yrotation Xrotation
							JOINT rwrist
							{
								OFFSET -0.269108 0.006794 -0.006027
								CHANNELS 3 Zrotation Yrotation Xrotation
								End Site
								{
									OFFSET 0.000000 0.000000 0.000000
								}
							}
						}
					}
				}
			}
		}
	}
}
MOTION
Frames: 17
Frame Time: 0.033333
0.334286 0.589934 1.000547 3.734016 -3.637772 94.343795 -6.350812 -6.857793 -26.142098 -7.266929 1.325663 19.107106 6.819672 0.200563 -3.473147 0.000000 -0.000000 0.000000 -12.902321 -5.725135 -1.460395 2.177268 -6.504621 21.594264 5.717730 -5.292161 -15.834125 0.000000 -0.000000 0.000000 1.721363 6.853010 15.254983 0.710128 -3.139733 -4.909631 -1.386927 0.156652 -2.368171 -3.221153 -6.024451 -0.189151 -6.188222 -8.468439 11.823877 -24.688120 -5.083505 -0.088645 -49.293090 -8.609930 3.815199 20.259542 -32.483228 -4.221213 -0.571154 -3.368619 -5.090673 17.804434 9.521415 -3.649085 48.065529 24.573765 10.234990 -93.980943 65.441168 -69.082723 5.446344 3.816802 -6.238479 
0.328200 0.596634 1.001196 4.941745 -3.333381 94.068012 -5.705345 -6.808836 -26.275486 -7.297927 0.718225 18.811954 6.089392 -0.331179 -2.718075 0.000000 -0.000000 0.000000 -12.022280 -6.094562 -0.113110 2.455585 -7.472340 19.230675 5.414972 -5.520132 -15.967419 0.000000 -0.000000 0.000000 1.553204 7.160274 15.218292 0.769968 -3.528643 -3.764473 -1.201354 0.365109 -2.270170 -3.177389 -4.156494 -1.540956 -5.692341 -7.313804 11.133302 -24.315400 -5.297759 -0.475581 -49.806181 -9.291102 3.845888 20.014249 -31.930737 -4.642470 0.869650 -3.805791 -5.327475 18.312916 9.584736 -3.638028 49.080877 23.903560 10.575147 -89.012870 65.885118 -64.997622 4.585117 4.852053 -6.150427 
0.322893 0.602625 1.002441 6.778350 -2.972235 93.958118 -5.146829 -7.278748 -26.613021 -7.305407 -0.288915 18.627851 5.731807 -0.596682 -1.957969 0.000000 -0.000000 0.000000 -11.070062 -6.679473 1.429187 3.031846 -8.152266 16.441170 5.049489 -6.381830 -16.040085 0.000000 -0.000000 0.000000 1.697171 7.347118 15.663826 0.535970 -3.793911 -4.593751 -0.895857 0.360691 -1.850506 -3.636075 -3.156317 -1.560914 -4.852882 -6.032810 10.114299 -24.203799 -5.762474 -0.232087 -50.167577 -9.561840 4.278771 19.081778 -31.144990 -4.016455 4.748038 -4.281721 -5.690979 18.446664 9.743476 -2.749901 49.533110 22.166457 10.730764 -78.549368 66.527815 -56.198888 -0.618721 5.842712 -5.855064 
0.316255 0.610414 1.003221 8.421801 -2.621294 93.875481 -4.454128 -7.633891 -27.060129 -7.285046 -1.048534 18.243105 5.241938 -0.844004 -1.069680 0.000000 -0.000000 0.000000 -9.868226 -6.916052 2.193160 3.230937 -8.660621 14.683462 4.686595 -7.311882 -15.990906 0.000000 -0.000000 0.000000 1.633335 7.378256 15.775373 0.364922 -3.839427 -4.341100 -0.706319 0.374656 -1.862611 -4.043459 -1.954076 -2.072311 -4.435315 -4.811367 9.184758 -23.972416 -6.180163 -0.051466 -50.516651 -9.859376 5.059631 18.294205 -30.607346 -3.315529 6.389056 -4.595274 -6.232948 18.732321 9.984898 -1.846452 49.434631 21.040387 11.145158 -63.922339 66.828351 -43.055542 -3.361946 7.018145 -5.214374 
0.308933 0.618812 1.003512 10.023767 -2.266394 93.808827 -3.776458 -7.648569 -27.544348 -7.418481 -2.222161 17.823290 4.460693 -0.865004 -0.106724 0.000000 -0.000000 0.000000 -8.580994 -7.427645 2.467312 3.219907 -8.741333 13.539670 4.226401 -8.347888 -16.185064 0.000000 -0.000000 0.000000 1.764735 7.304108 16.172125 -0.107140 -3.694568 -4.489515 -0.599144 0.294954 -1.752386 -4.956348 -0.826909 -2.692565 -4.109748 -3.402994 7.962883 -24.101939 -6.462392 -0.364800 -50.228757 -9.827097 6.068167 16.507575 -30.424988 -2.267557 10.515739 -4.727451 -6.349939 18.871765 10.883133 -0.825614 49.375088 20.069569 12.106178 -48.136573 64.638977 -29.091603 -8.997550 7.690892 -3.303224 
0.300490 0.628428 1.003289 11.713269 -1.917233 93.880097 -2.941641 -8.022415 -28.471949 -7.518409 -2.970686 17.752155 4.078942 -1.040894 1.016844 0.000000 -0.000000 0.000000 -7.179548 -7.700503 2.262910 3.144370 -9.009800 13.097099 3.644556 -9.176130 -16.576165 0.000000 -0.000000 0.000000 1.663704 7.280381 16.261247 -0.578475 -3.564480 -4.559738 -0.582457 0.477402 -1.811116 -5.647566 -0.158136 -2.275322 -3.716136 -2.115416 6.576334 -23.423372 -7.092541 0.128506 -51.038798 -10.257792 6.674252 15.619084 -29.784280 -0.231094 12.521618 -4.744845 -7.093259 18.352212 11.956559 0.553846 49.128873 19.658736 11.695813 -31.136475 60.323331 -11.262118 -11.992367 8.229344 0.596057 
0.291944 0.639003 1.002652 13.515459 -1.580661 93.783784 -2.187985 -8.580991 -29.368864 -7.556625 -3.693589 17.747716 3.651612 -0.994850 1.817703 0.000000 -0.000000 0.000000 -5.936891 -8.163806 2.001405 3.162347 -9.313266 12.873677 2.897981 -9.683811 -17.487671 0.000000 -0.000000 0.000000 1.629561 7.179704 16.501991 -1.139903 -3.370088 -4.479815 -0.612655 0.592063 -1.866406 -6.170823 -0.084691 -2.323376 -3.307032 -1.459883 5.493404 -22.785987 -7.349867 0.386284 -52.004478 -10.785598 7.577371 15.385612 -29.368580 1.696623 11.538611 -4.636878 -7.708214 17.658261 13.290884 1.423083 48.991602 19.564269 12.163533 -17.291554 52.372332 4.286648 -9.744864 7.927120 4.992439 
0.282693 0.649644 1.002214 15.345865 -1.290719 93.595339 -1.424807 -9.075315 -30.045116 -7.685308 -4.276003 17.460635 2.879499 -1.123041 2.674210 0.000000 -0.000000 0.000000 -4.512626 -8.165097 1.742952 3.011143 -9.818839 12.725997 2.381038 -10.754045 -18.389381 0.000000 -0.000000 0.000000 1.257304 7.086689 16.928861 -1.617642 -3.086655 -4.875386 -0.487349 0.799969 -1.338250 -5.129753 -2.095415 -5.047779 -2.437561 -2.908230 5.568439 -22.361179 -7.422875 0.223191 -53.045244 -11.453059 8.542545 15.785403 -28.863356 3.069921 7.209028 -4.525346 -7.781077 16.574727 14.896529 1.522584 49.992533 19.399204 13.189915 -8.849963 42.413248 15.018401 -0.231395 4.235958 8.050463 
0.273648 0.660240 1.001259 17.308166 -0.950910 93.147980 -0.764887 -9.499284 -30.454927 -7.767532 -4.814903 17.119701 2.080328 -1.532643 3.768388 0.000000 -0.000000 0.000000 -3.380048 -8.438400 1.304891 2.859630 -11.127710 13.529544 1.821072 -10.913300 -19.405314 0.000000 -0.000000 0.000000 1.251348 6.779056 18.408010 -2.450230 -2.795726 -5.724091 -0.688028 1.324004 -2.224465 -7.133921 0.086224 -1.712028 -1.665001 -0.792912 4.739019 -21.786602 -7.821206 0.679617 -53.551867 -11.230581 9.137080 15.495301 -29.262390 4.473319 4.466310 -4.165592 -8.004964 16.033356 16.022828 2.664745 50.671246 17.063161 14.643055 -3.074490 36.076953 23.022980 4.373457 2.033915 9.413283 
0.264452 0.671750 1.000225 19.413364 -0.472062 92.671719 -0.183938 -9.512667 -30.866737 -7.686100 -5.511692 16.658316 1.368491 -1.993993 4.474920 0.000000 -0.000000 0.000000 -2.437102 -8.938806 0.679733 3.100617 -12.488505 14.571259 1.090932 -10.932359 -20.020844 0.000000 -0.000000 0.000000 1.281553 6.624926 19.095575 -3.020437 -2.577365 -5.185885 -0.963932 1.692974 -3.035642 -9.072474 2.862553 0.929438 -1.119604 1.399096 3.774743 -22.112599 -8.100589 1.039566 -53.244237 -11.585372 9.056820 14.927517 -29.439164 5.339837 4.146008 -4.985088 -7.591074 16.992738 16.194992 4.261221 50.233951 14.797295 14.789307 -0.084713 32.675757 29.272780 5.883780 4.310820 12.982085 
0.255386 0.682598 0.998674 21.821611 0.065445 92.629261 0.278268 -9.509117 -31.589970 -7.708116 -6.827280 15.840028 0.688105 -2.715501 6.044876 0.000000 -0.000000 0.000000 -1.077013 -9.089317 -0.406337 3.181421 -13.386879 15.354772 0.705411 -12.022205 -20.714400 0.000000 -0.000000 0.000000 1.097509 6.578185 19.390097 -3.094281 -2.346625 -5.321660 -1.130391 1.543932 -2.951552 -8.436467 2.307691 0.241519 -0.260704 0.384964 3.970828 -22.940091 -7.469192 1.025639 -52.684873 -11.974450 9.151839 14.044153 -30.266388 5.896312 4.474037 -5.268077 -6.761305 17.528243 14.892521 4.643469 51.517541 11.977767 15.243127 0.539967 31.550073 31.040305 5.483069 4.294597 14.317276 
0.246397 0.693878 0.997376 24.393051 0.754860 92.284973 0.738516 -9.805299 -31.830983 -7.529698 -8.102279 14.767422 -0.472347 -3.511515 7.563726 0.000000 -0.000000 0.000000 0.442087 -8.955411 -1.080699 3.188165 -14.798564 15.830624 0.212589 -13.232626 -21.164340 0.000000 -0.000000 0.000000 0.974430 6.467752 19.947880 -2.991492 -2.371117 -5.544362 -1.203869 1.365919 -2.603583 -8.611582 3.058107 -0.251008 0.052771 0.084314 3.932108 -23.360873 -6.898549 1.095278 -52.728863 -12.217653 9.188176 13.824160 -30.917203 5.799368 2.669923 -5.281817 -6.641390 18.305519 12.814530 4.718148 52.699762 8.993727 14.696763 0.011210 32.403012 29.188526 7.497993 3.397173 10.684586 
0.237875 0.703803 0.995666 26.774018 1.223633 92.100688 0.904620 -10.007331 -32.018458 -7.228866 -9.375188 13.395418 -1.349413 -4.113916 9.195559 0.000000 -0.000000 0.000000 1.463603 -10.386856 -1.734443 3.287277 -15.057328 16.038770 -0.358128 -13.930519 -21.478495 0.000000 -0.000000 0.000000 0.134080 6.742558 18.951134 -2.540663 -2.508854 -4.181214 -1.026899 1.056832 -2.204459 -8.818343 3.856211 -0.702758 0.207457 0.043592 3.318316 -23.701190 -6.388748 1.501783 -52.238016 -12.151076 9.424033 13.186897 -32.222296 5.452769 2.563867 -4.581861 -7.517058 18.877080 10.590873 4.576936 53.315682 6.563831 13.810380 -0.185952 33.741188 25.982534 7.944478 2.725778 5.952465 
0.226431 0.716420 0.992078 27.904733 1.837853 93.137236 1.903474 -8.894744 -34.172016 -7.333671 -9.674057 12.697409 -2.119985 -5.041869 10.187309 0.000000 -0.000000 0.000000 2.712380 -14.596715 -5.265400 2.710092 -13.942872 18.827654 -0.574315 -11.580548 -22.997405 0.000000 -0.000000 0.000000 -0.590813 7.572327 17.517452 -2.389459 -2.469556 -4.173682 -0.938934 0.925903 -1.495622 -8.464459 4.495294 -0.892997 0.437290 -0.433288 3.303956 -23.359600 -5.597005 1.547621 -52.346710 -12.192480 9.717968 12.452255 -31.936775 6.196824 2.918961 -4.241353 -8.367417 18.471408 8.251926 4.467679 55.376237 5.533246 12.416443 -0.557211 32.870293 23.288839 8.440010 2.844176 2.084136 
0.221946 0.724010 0.994307 31.107147 2.952691 90.991957 1.694605 -9.614111 -31.186513 -6.243115 -11.604924 10.193236 -4.541484 -5.888258 12.282421 0.000000 -0.000000 0.000000 4.272281 -9.879588 -1.365787 3.707105 -18.071683 14.565730 -1.010940 -14.874316 -22.175334 0.000000 -0.000000 0.000000 -0.044953 6.362393 19.161753 -2.312400 -2.674473 -2.216455 -0.411906 0.803860 -3.314852 -10.172470 2.779666 0.541778 1.346733 2.254350 2.721643 -24.392339 -6.897527 2.447682 -52.037994 -9.999508 8.258501 14.495653 -31.498314 3.337558 -3.041394 -4.189440 -5.308824 18.179727 8.464367 4.424181 55.623672 2.333608 9.203729 0.821544 32.605874 21.183301 7.041406 0.816419 -0.345023 
0.215106 0.734189 0.993005 32.335372 3.631582 90.854965 2.196855 -9.421905 -31.304797 -5.725467 -11.713780 8.654105 -6.108734 -6.322059 13.199920 0.000000 -0.000000 0.000000 5.220407 -10.556712 -2.076541 3.745508 -18.587353 14.598213 -1.638804 -14.825903 -22.427419 0.000000 -0.000000 0.000000 0.083555 6.620171 19.014968 -2.444486 -2.528309 -1.671363 -0.357233 0.876194 -3.535497 -10.490326 3.017824 0.220541 1.515498 2.467313 2.997935 -24.219428 -7.105663 2.184052 -52.104065 -8.798765 8.200482 14.962799 -30.116477 3.307393 -3.956231 -4.139042 -4.309813 18.210874 8.780908 4.941821 56.135083 0.503238 8.377849 -0.416421 31.357461 19.284116 10.115156 0.737371 -1.184988 
0.208897 0.745406 0.991986 33.529328 4.389657 90.755339 2.665029 -8.861078 -31.993063 -5.517949 -11.684262 8.408825 -8.134849 -6.383531 12.460161 0.000000 -0.000000 0.000000 6.117144 -10.528912 -2.572251 3.978414 -19.575711 14.061984 -1.736482 -14.805292 -22.428490 0.000000 -0.000000 0.000000 0.633528 6.811722 19.465929 -2.643262 -2.266774 -2.166331 -0.333821 0.872096 -3.423520 -10.599360 3.636933 0.702224 1.493471 2.025037 2.676862 -24.037516 -7.155634 2.313415 -52.574226 -8.117034 7.798944 15.819375 -27.784468 3.082354 -3.799618 -4.445037 -4.478817 18.069952 9.065394 5.309673 56.082645 0.113236 8.197673 -0.140692 28.780490 21.458148 9.556167 0.198171 -1.122786 
